<mxfile host="Electron" agent="Mozilla/5.0 (Windows NT 10.0; Win64; x64) AppleWebKit/537.36 (KHTML, like Gecko) draw.io/27.0.9 Chrome/134.0.6998.205 Electron/35.4.0 Safari/537.36" version="27.0.9">
  <diagram name="Page-1" id="1hs5s9o86z9CkmKRlvlU">
    <mxGraphModel dx="1258" dy="1082" grid="0" gridSize="10" guides="1" tooltips="1" connect="1" arrows="1" fold="1" page="1" pageScale="1" pageWidth="827" pageHeight="1169" math="0" shadow="0">
      <root>
        <mxCell id="0" />
        <mxCell id="1" parent="0" />
        <mxCell id="x263QQzyvhfLZ9ghH397-1" value="" style="rounded=0;whiteSpace=wrap;html=1;movable=0;resizable=0;rotatable=0;deletable=0;editable=0;locked=1;connectable=0;" parent="1" vertex="1">
          <mxGeometry x="194" y="99" width="561" height="629" as="geometry" />
        </mxCell>
        <mxCell id="m7XsVHhVL0BLHQTgYPTq-1" value="Assistante sociale" style="shape=umlActor;verticalLabelPosition=bottom;verticalAlign=top;html=1;" parent="1" vertex="1">
          <mxGeometry x="70" y="370" width="30" height="60" as="geometry" />
        </mxCell>
        <mxCell id="m7XsVHhVL0BLHQTgYPTq-2" value="responsable" style="shape=umlActor;verticalLabelPosition=bottom;verticalAlign=top;html=1;" parent="1" vertex="1">
          <mxGeometry x="70" y="170" width="30" height="60" as="geometry" />
        </mxCell>
        <mxCell id="m7XsVHhVL0BLHQTgYPTq-6" value="" style="shape=ellipse;container=1;horizontal=1;horizontalStack=0;resizeParent=1;resizeParentMax=0;resizeLast=0;html=1;dashed=0;collapsible=0;" parent="1" vertex="1">
          <mxGeometry x="585" y="207" width="122" height="50" as="geometry" />
        </mxCell>
        <mxCell id="m7XsVHhVL0BLHQTgYPTq-7" value="login" style="html=1;strokeColor=none;fillColor=none;align=center;verticalAlign=middle;rotatable=0;whiteSpace=wrap;" parent="m7XsVHhVL0BLHQTgYPTq-6" vertex="1">
          <mxGeometry x="2" y="15" width="120" height="12.5" as="geometry" />
        </mxCell>
        <mxCell id="m7XsVHhVL0BLHQTgYPTq-42" value="" style="triangle;whiteSpace=wrap;html=1;rotation=-90;" parent="1" vertex="1">
          <mxGeometry x="75" y="260" width="20" height="20" as="geometry" />
        </mxCell>
        <mxCell id="m7XsVHhVL0BLHQTgYPTq-43" value="" style="endArrow=none;html=1;rounded=0;entryX=0;entryY=0.5;entryDx=0;entryDy=0;" parent="1" target="m7XsVHhVL0BLHQTgYPTq-42" edge="1">
          <mxGeometry width="50" height="50" relative="1" as="geometry">
            <mxPoint x="85" y="360" as="sourcePoint" />
            <mxPoint x="440" y="360" as="targetPoint" />
          </mxGeometry>
        </mxCell>
        <mxCell id="m7XsVHhVL0BLHQTgYPTq-45" value="" style="endArrow=classic;html=1;rounded=0;entryX=0;entryY=1;entryDx=0;entryDy=0;endFill=1;dashed=1;dashPattern=8 8;" parent="1" target="m7XsVHhVL0BLHQTgYPTq-7" edge="1" source="bvzKBw0PHsRoX_8Q5MpC-2">
          <mxGeometry width="50" height="50" relative="1" as="geometry">
            <mxPoint x="235" y="242" as="sourcePoint" />
            <mxPoint x="565" y="302" as="targetPoint" />
            <Array as="points">
              <mxPoint x="494" y="235" />
            </Array>
          </mxGeometry>
        </mxCell>
        <mxCell id="bvzKBw0PHsRoX_8Q5MpC-12" value="&quot;include&quot;" style="edgeLabel;html=1;align=center;verticalAlign=middle;resizable=0;points=[];" vertex="1" connectable="0" parent="m7XsVHhVL0BLHQTgYPTq-45">
          <mxGeometry x="-0.0535" y="-1" relative="1" as="geometry">
            <mxPoint x="14" y="-10" as="offset" />
          </mxGeometry>
        </mxCell>
        <mxCell id="m7XsVHhVL0BLHQTgYPTq-46" value="" style="endArrow=classic;html=1;rounded=0;entryX=0;entryY=0.5;entryDx=0;entryDy=0;endFill=1;dashed=1;dashPattern=8 8;" parent="1" source="bvzKBw0PHsRoX_8Q5MpC-2" target="m7XsVHhVL0BLHQTgYPTq-12" edge="1">
          <mxGeometry width="50" height="50" relative="1" as="geometry">
            <mxPoint x="355" y="301" as="sourcePoint" />
            <mxPoint x="519" y="292" as="targetPoint" />
            <Array as="points">
              <mxPoint x="515" y="300" />
            </Array>
          </mxGeometry>
        </mxCell>
        <mxCell id="bvzKBw0PHsRoX_8Q5MpC-13" value="&quot;include&quot;" style="edgeLabel;html=1;align=center;verticalAlign=middle;resizable=0;points=[];" vertex="1" connectable="0" parent="m7XsVHhVL0BLHQTgYPTq-46">
          <mxGeometry x="-0.1866" y="3" relative="1" as="geometry">
            <mxPoint x="5" y="-6" as="offset" />
          </mxGeometry>
        </mxCell>
        <mxCell id="m7XsVHhVL0BLHQTgYPTq-47" value="" style="endArrow=classic;html=1;rounded=0;entryX=0;entryY=0;entryDx=0;entryDy=0;endFill=1;exitX=0.918;exitY=0.255;exitDx=0;exitDy=0;exitPerimeter=0;dashed=1;dashPattern=8 8;" parent="1" source="m7XsVHhVL0BLHQTgYPTq-19" target="m7XsVHhVL0BLHQTgYPTq-15" edge="1">
          <mxGeometry width="50" height="50" relative="1" as="geometry">
            <mxPoint x="292" y="347" as="sourcePoint" />
            <mxPoint x="524" y="340" as="targetPoint" />
          </mxGeometry>
        </mxCell>
        <mxCell id="bvzKBw0PHsRoX_8Q5MpC-7" value="&quot;extend&quot;" style="edgeLabel;html=1;align=center;verticalAlign=middle;resizable=0;points=[];" vertex="1" connectable="0" parent="m7XsVHhVL0BLHQTgYPTq-47">
          <mxGeometry x="0.1006" y="-1" relative="1" as="geometry">
            <mxPoint x="-4" y="-13" as="offset" />
          </mxGeometry>
        </mxCell>
        <mxCell id="m7XsVHhVL0BLHQTgYPTq-48" value="" style="endArrow=classic;html=1;rounded=0;endFill=1;exitX=0.676;exitY=0.057;exitDx=0;exitDy=0;exitPerimeter=0;dashed=1;dashPattern=8 8;entryX=0;entryY=0.25;entryDx=0;entryDy=0;" parent="1" source="bvzKBw0PHsRoX_8Q5MpC-1" target="m7XsVHhVL0BLHQTgYPTq-20" edge="1">
          <mxGeometry width="50" height="50" relative="1" as="geometry">
            <mxPoint x="500" y="389" as="sourcePoint" />
            <mxPoint x="394" y="419" as="targetPoint" />
            <Array as="points">
              <mxPoint x="322" y="416" />
            </Array>
          </mxGeometry>
        </mxCell>
        <mxCell id="bvzKBw0PHsRoX_8Q5MpC-6" value="&quot;include&quot;" style="edgeLabel;html=1;align=center;verticalAlign=middle;resizable=0;points=[];" vertex="1" connectable="0" parent="m7XsVHhVL0BLHQTgYPTq-48">
          <mxGeometry x="0.0068" relative="1" as="geometry">
            <mxPoint x="17" y="-11" as="offset" />
          </mxGeometry>
        </mxCell>
        <mxCell id="m7XsVHhVL0BLHQTgYPTq-49" value="" style="endArrow=classic;html=1;rounded=0;entryX=0.002;entryY=0.714;entryDx=0;entryDy=0;endFill=1;exitX=0.981;exitY=0.747;exitDx=0;exitDy=0;exitPerimeter=0;dashed=1;dashPattern=8 8;entryPerimeter=0;" parent="1" target="m7XsVHhVL0BLHQTgYPTq-24" edge="1" source="bvzKBw0PHsRoX_8Q5MpC-1">
          <mxGeometry width="50" height="50" relative="1" as="geometry">
            <mxPoint x="120" y="260" as="sourcePoint" />
            <mxPoint x="444" y="580" as="targetPoint" />
            <Array as="points">
              <mxPoint x="387" y="507" />
            </Array>
          </mxGeometry>
        </mxCell>
        <mxCell id="bvzKBw0PHsRoX_8Q5MpC-8" value="&quot;include&quot;" style="edgeLabel;html=1;align=center;verticalAlign=middle;resizable=0;points=[];" vertex="1" connectable="0" parent="m7XsVHhVL0BLHQTgYPTq-49">
          <mxGeometry x="0.1626" y="2" relative="1" as="geometry">
            <mxPoint x="20" y="-8" as="offset" />
          </mxGeometry>
        </mxCell>
        <mxCell id="m7XsVHhVL0BLHQTgYPTq-50" value="" style="endArrow=none;html=1;rounded=0;entryX=0;entryY=0.5;entryDx=0;entryDy=0;endFill=0;" parent="1" target="bvzKBw0PHsRoX_8Q5MpC-1" edge="1">
          <mxGeometry width="50" height="50" relative="1" as="geometry">
            <mxPoint x="110" y="270" as="sourcePoint" />
            <mxPoint x="654" y="560" as="targetPoint" />
            <Array as="points">
              <mxPoint x="172" y="455" />
            </Array>
          </mxGeometry>
        </mxCell>
        <mxCell id="m7XsVHhVL0BLHQTgYPTq-51" value="" style="endArrow=classic;html=1;rounded=0;endFill=1;exitX=0.743;exitY=0.937;exitDx=0;exitDy=0;exitPerimeter=0;dashed=1;dashPattern=8 8;entryX=0;entryY=0.75;entryDx=0;entryDy=0;" parent="1" target="m7XsVHhVL0BLHQTgYPTq-38" edge="1" source="bvzKBw0PHsRoX_8Q5MpC-1">
          <mxGeometry width="50" height="50" relative="1" as="geometry">
            <mxPoint x="100" y="270" as="sourcePoint" />
            <mxPoint x="654" y="600" as="targetPoint" />
            <Array as="points">
              <mxPoint x="365" y="662" />
            </Array>
          </mxGeometry>
        </mxCell>
        <mxCell id="bvzKBw0PHsRoX_8Q5MpC-10" value="&quot;extend&quot;" style="edgeLabel;html=1;align=center;verticalAlign=middle;resizable=0;points=[];" vertex="1" connectable="0" parent="m7XsVHhVL0BLHQTgYPTq-51">
          <mxGeometry x="0.0635" y="-1" relative="1" as="geometry">
            <mxPoint x="48" y="38" as="offset" />
          </mxGeometry>
        </mxCell>
        <mxCell id="x263QQzyvhfLZ9ghH397-2" value="&lt;font style=&quot;font-size: 16px;&quot;&gt;gestion des membres -impression&amp;nbsp;&lt;/font&gt;" style="text;html=1;align=center;verticalAlign=middle;whiteSpace=wrap;rounded=0;" parent="1" vertex="1">
          <mxGeometry x="212" y="117" width="217" height="30" as="geometry" />
        </mxCell>
        <mxCell id="bvzKBw0PHsRoX_8Q5MpC-1" value="gÃ©rer les impressions" style="ellipse;whiteSpace=wrap;html=1;" vertex="1" parent="1">
          <mxGeometry x="219" y="437" width="120" height="48" as="geometry" />
        </mxCell>
        <mxCell id="m7XsVHhVL0BLHQTgYPTq-11" value="" style="shape=ellipse;container=1;horizontal=1;horizontalStack=0;resizeParent=1;resizeParentMax=0;resizeLast=0;html=1;dashed=0;collapsible=0;" parent="1" vertex="1">
          <mxGeometry x="587" y="275" width="120" height="50" as="geometry" />
        </mxCell>
        <mxCell id="m7XsVHhVL0BLHQTgYPTq-12" value="logout" style="html=1;strokeColor=none;fillColor=none;align=center;verticalAlign=middle;rotatable=0;whiteSpace=wrap;" parent="m7XsVHhVL0BLHQTgYPTq-11" vertex="1">
          <mxGeometry y="18.75" width="120" height="12.5" as="geometry" />
        </mxCell>
        <mxCell id="m7XsVHhVL0BLHQTgYPTq-14" value="" style="shape=ellipse;container=1;horizontal=1;horizontalStack=0;resizeParent=1;resizeParentMax=0;resizeLast=0;html=1;dashed=0;collapsible=0;" parent="1" vertex="1">
          <mxGeometry x="607" y="388.5" width="120" height="60" as="geometry" />
        </mxCell>
        <mxCell id="m7XsVHhVL0BLHQTgYPTq-15" value="lire carte&amp;nbsp;&lt;div&gt;d&#39;identititÃ©&lt;/div&gt;" style="html=1;strokeColor=none;fillColor=none;align=center;verticalAlign=middle;rotatable=0;whiteSpace=wrap;" parent="m7XsVHhVL0BLHQTgYPTq-14" vertex="1">
          <mxGeometry y="20.00142857142857" width="120" height="15" as="geometry" />
        </mxCell>
        <mxCell id="m7XsVHhVL0BLHQTgYPTq-19" value="" style="shape=ellipse;container=1;horizontal=1;horizontalStack=0;resizeParent=1;resizeParentMax=0;resizeLast=0;html=1;dashed=0;collapsible=0;" parent="1" vertex="1">
          <mxGeometry x="398" y="400" width="120" height="37" as="geometry" />
        </mxCell>
        <mxCell id="m7XsVHhVL0BLHQTgYPTq-20" value="chercher membre" style="html=1;strokeColor=none;fillColor=none;align=center;verticalAlign=middle;rotatable=0;whiteSpace=wrap;" parent="m7XsVHhVL0BLHQTgYPTq-19" vertex="1">
          <mxGeometry y="13.875880952380951" width="120" height="9.25" as="geometry" />
        </mxCell>
        <mxCell id="m7XsVHhVL0BLHQTgYPTq-24" value="" style="shape=ellipse;container=1;horizontal=1;horizontalStack=0;resizeParent=1;resizeParentMax=0;resizeLast=0;html=1;dashed=0;collapsible=0;" parent="1" vertex="1">
          <mxGeometry x="435" y="477" width="116" height="42" as="geometry" />
        </mxCell>
        <mxCell id="m7XsVHhVL0BLHQTgYPTq-25" value="afficher&amp;nbsp; membre" style="html=1;strokeColor=none;fillColor=none;align=center;verticalAlign=middle;rotatable=0;whiteSpace=wrap;" parent="m7XsVHhVL0BLHQTgYPTq-24" vertex="1">
          <mxGeometry x="-2" y="14" width="116" height="10.5" as="geometry" />
        </mxCell>
        <mxCell id="m7XsVHhVL0BLHQTgYPTq-34" value="" style="shape=ellipse;container=1;horizontal=1;horizontalStack=0;resizeParent=1;resizeParentMax=0;resizeLast=0;html=1;dashed=0;collapsible=0;" parent="1" vertex="1">
          <mxGeometry x="435" y="556" width="116" height="53" as="geometry" />
        </mxCell>
        <mxCell id="m7XsVHhVL0BLHQTgYPTq-35" value="impression fiche&amp;nbsp;&lt;div&gt;de&amp;nbsp; &amp;nbsp;membre&lt;/div&gt;" style="html=1;strokeColor=none;fillColor=none;align=center;verticalAlign=middle;rotatable=0;whiteSpace=wrap;" parent="m7XsVHhVL0BLHQTgYPTq-34" vertex="1">
          <mxGeometry x="-2" y="19.875" width="116" height="13.25" as="geometry" />
        </mxCell>
        <mxCell id="m7XsVHhVL0BLHQTgYPTq-37" value="" style="shape=ellipse;container=1;horizontal=1;horizontalStack=0;resizeParent=1;resizeParentMax=0;resizeLast=0;html=1;dashed=0;collapsible=0;" parent="1" vertex="1">
          <mxGeometry x="435" y="623" width="130" height="70" as="geometry" />
        </mxCell>
        <mxCell id="m7XsVHhVL0BLHQTgYPTq-38" value="impression carte de membre -code bar" style="html=1;strokeColor=none;fillColor=none;align=center;verticalAlign=middle;rotatable=0;whiteSpace=wrap;" parent="m7XsVHhVL0BLHQTgYPTq-37" vertex="1">
          <mxGeometry y="26.246666666666666" width="130" height="17.5" as="geometry" />
        </mxCell>
        <mxCell id="bvzKBw0PHsRoX_8Q5MpC-3" value="" style="endArrow=classic;html=1;rounded=0;entryX=0;entryY=0.5;entryDx=0;entryDy=0;endFill=1;exitX=0.448;exitY=0.008;exitDx=0;exitDy=0;exitPerimeter=0;dashed=1;dashPattern=8 8;" edge="1" parent="1" source="bvzKBw0PHsRoX_8Q5MpC-1" target="bvzKBw0PHsRoX_8Q5MpC-2">
          <mxGeometry width="50" height="50" relative="1" as="geometry">
            <mxPoint x="100" y="203" as="sourcePoint" />
            <mxPoint x="397" y="264" as="targetPoint" />
            <Array as="points">
              <mxPoint x="318" y="286" />
            </Array>
          </mxGeometry>
        </mxCell>
        <mxCell id="bvzKBw0PHsRoX_8Q5MpC-5" value="&quot;include&quot;" style="edgeLabel;html=1;align=center;verticalAlign=middle;resizable=0;points=[];" vertex="1" connectable="0" parent="bvzKBw0PHsRoX_8Q5MpC-3">
          <mxGeometry x="-0.4532" y="-1" relative="1" as="geometry">
            <mxPoint x="55" y="-102" as="offset" />
          </mxGeometry>
        </mxCell>
        <mxCell id="bvzKBw0PHsRoX_8Q5MpC-2" value="authentifier" style="ellipse;whiteSpace=wrap;html=1;" vertex="1" parent="1">
          <mxGeometry x="380" y="262" width="120" height="48" as="geometry" />
        </mxCell>
        <mxCell id="bvzKBw0PHsRoX_8Q5MpC-4" value="" style="endArrow=classic;html=1;rounded=0;exitX=0.962;exitY=0.723;exitDx=0;exitDy=0;exitPerimeter=0;entryX=0;entryY=0.5;entryDx=0;entryDy=0;dashed=1;dashPattern=8 8;" edge="1" parent="1" source="bvzKBw0PHsRoX_8Q5MpC-1" target="m7XsVHhVL0BLHQTgYPTq-35">
          <mxGeometry width="50" height="50" relative="1" as="geometry">
            <mxPoint x="510" y="529" as="sourcePoint" />
            <mxPoint x="560" y="479" as="targetPoint" />
            <Array as="points">
              <mxPoint x="372" y="586" />
            </Array>
          </mxGeometry>
        </mxCell>
        <mxCell id="bvzKBw0PHsRoX_8Q5MpC-9" value="&quot;extend&quot;" style="edgeLabel;html=1;align=center;verticalAlign=middle;resizable=0;points=[];" vertex="1" connectable="0" parent="bvzKBw0PHsRoX_8Q5MpC-4">
          <mxGeometry x="0.1001" y="3" relative="1" as="geometry">
            <mxPoint x="33" y="10" as="offset" />
          </mxGeometry>
        </mxCell>
      </root>
    </mxGraphModel>
  </diagram>
</mxfile>
